<svg width="74" height="74" viewBox="0 0 74 74" fill="none" xmlns="http://www.w3.org/2000/svg" >

<!-- dasharray 선의길이
    dashoffset 선의간격
 -->
 <style>
.cls-1,
.cls-2 {
    fill: none;
    stroke: #274b9b;
    stroke-width: 35px;
}

.cls-1 {
    stroke-dashoffset: 620;
    stroke-dasharray: -620;
    animation: line 1s linear 0s forwards;
    stroke-miterlimit: 10;
}

.cls-2 {
    stroke-dashoffset: 460;
    stroke-dasharray: -460;
    animation: line2 1s linear 1s forwards;
    stroke-linecap: round;
    stroke-linejoin: round;
}

.cls-3 {
    fill: #274b9b;
    stroke-dashoffset: 10;
    stroke-dasharray: -10;
    animation: line3 1s linear 2s forwards;
}

@keyframes line {
    from {
        stroke-dashoffset: -620;
    }

    to {
        stroke-dashoffset: 0;
    }
}

@keyframes line2 {
    from {
        stroke-dashoffset: 460;
    }

    to {
        stroke-dashoffset: 0;
    }
}

@keyframes line3 {
    from {
        stroke-dashoffset: 10;
    }

    to {
        stroke-dashoffset: 0;
    }
}

</style>


<path id="_4" data-name="4" class="cls-1" d="M447.38,74.64a443.19,443.19,0,0,1,53-3.16C743.72,71.48,941,268.77,941,512.14S743.72,952.8,500.35,952.8,59.69,755.51,59.69,512.14A439.28,439.28,0,0,1,92,346.32"/>
<path id="_2" data-name="2" class="cls-2" d="M82.76,653.21s52.88-95.75,223.76-149.51c0,0-93.24-57.69-165.76-111.36,0,0-103-73.38-113.92-134.93,0,0-6.4-40.43,120.32-34.67,0,0,174.78-9,397.47,125.44,0,0,215,130.56,222.69,230.4,0,0,10.49,79-64.66,110-10.52,4.33-50.91,9.64-62.23,10.69-24.7,2.28-47.15,4.92-51.45,36.8a35.45,35.45,0,0,0,.16,4.36c0,9,7.85,58,172.9,124.74"/>
<circle id="_5" data-name="5" class="cls-3" cx="602.14" cy="527.01" r="30.76"/>
<path id="_3" data-name="3" class="cls-1" d="M167.89,220.71A441.52,441.52,0,0,1,347.4,96.55"/>
<path id="_1" data-name="1" class="cls-2" d="M401.59,274.72S356.1,159.81,345.41,84.18c-3.18-22.57-3.27-41.64,1.88-53.12,0,0,9.6-21.36,58.88,11.72,0,0,168.39,112.92,196,341.81"/></svg>
<!-- 선길이 알려줌 -->
<!-- <script>console.log(document.querySelector('.st0').getTotalLength());</script> -->


</svg>
