<svg width="75" height="75" viewBox="0 0 75 75" fill="none" xmlns="http://www.w3.org/2000/svg">
<style>
path{fill:black; animation:left 5s infinite;}
@keyframes left{
    to{transform1:translateX(100px);}
}
</style>
<g opacity="0.6" clip-path="url(#clip0_68_31)">
<path d="M39.3043 74.9999C19.6186 74.9999 3.60864 59.0663 3.60864 39.4868C3.60864 34.3349 4.69236 29.3664 6.83187 24.7202C7.15028 24.0199 7.98262 23.7143 8.68089 24.0366C9.38475 24.359 9.69199 25.1815 9.36799 25.8762C7.39607 30.1611 6.39614 34.7406 6.39614 39.4868C6.39614 57.5379 21.1548 72.2211 39.2987 72.2211C57.4426 72.2211 72.2013 57.5379 72.2013 39.4868C72.2013 21.4357 57.4426 6.75244 39.2987 6.75244C39.1367 6.75244 38.9803 6.75244 38.8183 6.758C38.8127 6.758 38.8071 6.758 38.8016 6.758C38.0362 6.758 37.4162 6.14666 37.405 5.38527C37.3938 4.61832 38.0139 3.99031 38.7848 3.97919C38.958 3.97919 39.1311 3.97363 39.2987 3.97363C58.9788 3.97363 74.9944 19.9073 74.9944 39.4868C75 59.0663 58.99 74.9999 39.3043 74.9999Z" fill="#254B9F"/>
<path d="M16.6859 15.2169C16.3004 15.2169 15.9094 15.0558 15.6357 14.7445C15.1273 14.1665 15.1832 13.2884 15.7642 12.7827C19.8644 9.20358 24.8026 6.56928 30.0424 5.17431C30.791 4.97424 31.5507 5.41329 31.7518 6.15801C31.9529 6.89717 31.5116 7.65857 30.763 7.85864C25.931 9.14801 21.3783 11.5711 17.602 14.8724C17.3451 15.1058 17.0155 15.2169 16.6859 15.2169Z" fill="#254B9F"/>
<path d="M61.3474 66.5913C61.1742 66.5913 60.9954 66.558 60.8279 66.4913C56.8784 64.9074 44.0191 59.3664 44.3151 54.4924C44.4268 52.7029 45.9854 51.4024 48.9461 50.6132C48.9907 50.6021 49.0354 50.591 49.0857 50.5854C49.1583 50.5743 56.6159 49.3183 58.1465 45.0278C59.0514 42.4935 57.7219 39.209 54.1971 35.2686C53.996 35.0519 31.668 11.6321 3.88796 16.0837C3.72037 16.1171 2.97741 16.3338 2.83776 16.7562C2.78189 16.9229 2.60314 17.8844 4.69795 20.1797C4.77616 20.2575 15.7083 31.3894 23.7747 34.0293C24.6574 34.3183 25.2439 35.1352 25.2272 36.0634C25.2104 36.9915 24.5959 37.7918 23.7021 38.0474C19.0879 39.3813 10.8316 42.4657 7.40166 48.1178C7.00504 48.7736 6.14477 48.9848 5.4856 48.5902C4.82085 48.1956 4.60857 47.3453 5.00519 46.684C8.47979 40.9652 15.915 37.6473 21.0487 35.9578C12.6918 32.3064 3.08913 22.5306 2.659 22.086C0.391012 19.6017 -0.407812 17.5732 0.195495 15.8448C0.90494 13.8162 3.17293 13.3883 3.42989 13.3438C32.7182 8.64765 55.3087 32.3842 56.2584 33.4013C60.5374 38.1808 62.0512 42.4046 60.772 45.967C58.761 51.5858 50.5493 53.153 49.6052 53.3198C47.6612 53.8422 47.1194 54.4313 47.1026 54.6647C46.9965 56.3931 53.8954 60.7169 61.8669 63.9126C62.5819 64.2016 62.9283 65.0074 62.6378 65.7188C62.4255 66.2579 61.9004 66.5913 61.3474 66.5913Z" fill="#254B9F"/>
<path d="M33.0981 0.361477C32.9249 0.272555 31.3775 -0.46105 30.0313 0.461514C28.3833 1.58971 28.6459 4.09064 28.7409 4.95762C28.7465 4.98541 28.8414 5.67456 29.0369 6.76385C29.819 11.0766 31.6457 18.7183 35.0644 21.4359L36.8073 19.2629C34.8577 17.7179 32.9808 12.8605 31.7853 6.26922C31.6066 5.26885 31.5116 4.62417 31.5116 4.62417C31.3831 3.41816 31.5116 2.84573 31.6122 2.77904C31.6736 2.71791 31.8077 2.77904 31.8579 2.80127C46.9965 10.5319 49.4265 29.9947 49.4488 30.1892L52.2251 29.8668C52.119 29.0165 49.5885 8.78126 33.0981 0.361477Z" fill="#254B9F"/>
<path d="M44.5218 39.0201C45.7621 39.0201 46.7675 38.0198 46.7675 36.7859C46.7675 35.552 45.7621 34.5518 44.5218 34.5518C43.2816 34.5518 42.2762 35.552 42.2762 36.7859C42.2762 38.0198 43.2816 39.0201 44.5218 39.0201Z" fill="#254B9F"/>
</g>
<defs>
<clipPath id="clip0_68_31">
<rect width="75" height="75" fill="white"/>
</clipPath>
</defs>
</svg>
