<svg id="Layer_1" data-name="Layer 1" xmlns="http://www.w3.org/2000/svg" viewBox="0 0 432.27 437.78">
 <style>

    .st0 {
            stroke-dashoffset:1360;
            stroke-dasharray:1200;
            animation: line 4s infinite;
        }
        @keyframes line {
            to{stroke-dashoffset:0;}
        }
    .st1{     
            fill:#274b9b;
            animation: cl 4s 4s infinite;
            }
        @keyframes cl {
            0% { opacity: 0; }
            100% { opacity: 1; }
        
        }
</style>
<path id="st0" class="st0" d="M106,128.45a201.16,201.16,0,0,1,81.75-56.54M71.39,184.65A200,200,0,0,0,56.7,259.23c-.5,108.26,85.89,198,194.1,201.51,129,4.11,231.75-113.52,202.1-246.69C437.42,144.51,366.71,76.53,296.72,63.24a207.29,207.29,0,0,0-63.48-2.31m143.3,360c-78.25-33.23-78.69-57.49-78.69-57.49-4.37-17.71,41.31-19.67,41.31-19.67,45.47-10.5,39.78-53.34,39.78-53.34C375.45,245,277.53,185.5,277.53,185.5c-101.41-61.21-181-57.13-181-57.13-57.71-2.62-54.79,15.79-54.79,15.79,4.95,28,51.87,61.45,51.87,61.45,19,14.06,41.13,28.73,56.5,38.65a11,11,0,0,1-1.9,19.44C86.68,287.94,66,320,66,320M303.72,203.08C291.16,98.85,214.48,47.43,214.48,47.43c-22.45-15.07-26.82-5.34-26.82-5.34-2.34,5.23-2.3,13.91-.85,24.19,4.86,34.44,25.58,86.77,25.58,86.77" transform="translate(-33.74 -31.03)" style="fill:none;stroke:#254b9f;stroke-miterlimit:10;stroke-width:15.938731580972672px" />
<circle class="st1" cx="264.27" cy="239.3" r="14.94" />
</svg>
