<svg id="Layer_1" data-name="Layer 1" xmlns="http://www.w3.org/2000/svg" viewBox="0 0 824 824" class="" style=""><title>3</title><path d="M-67.21-369.92v-12a7.89,7.89,0,0,0,1-1.73c5-19,18.22-28.78,36.74-32.08,10.46-1.86,21.06-3,31.63-4.16a462.65,462.65,0,0,1,93.24-1,14.77,14.77,0,0,0,11.87-3.72c24.35-20.94,50.77-38.93,79.84-52.61,17-8,34.61-14.48,52-21.4,4.12-1.63,6.31-3.57,5.81-8.38a136.65,136.65,0,0,1-.78-18.42c.43-14.54,6.18-26.06,19.85-32.67,1.94-.93,3.85-1.91,5.77-2.87h12c4.39,1.87,9.12,3.21,13.11,5.72,17,10.71,33.71,21.92,50.76,32.57,3.9,2.43,8.72,4.66,13.15,4.74,24.69.43,49.18,2.32,73.42,7.21,41.68,8.41,81.35,22.34,118.49,43.23,47.91,26.94,87.54,63.22,120.38,107.12q64.21,85.88,73.64,192.7c.45,4.92,1.36,9.8,2,14.71v39a31.93,31.93,0,0,0-1.12,4.24c-2,16.14-3.14,32.46-6.13,48.42-16.15,86.36-58,158.54-123.45,216.56-64.69,57.31-140.66,89.22-227,95.79-6.1.47-12.17,1.32-18.25,2h-21a21.83,21.83,0,0,0-4.74-1.1c-23.89-.31-47.4-3.72-70.62-9.06C169.85,218.86,88.94,160.87,31,71.05-.48,22.24-18.48-31.72-25.23-89.47A385.31,385.31,0,0,1-23.71-188,360.27,360.27,0,0,1,.45-276.76c1.8-4.33.91-7.07-2.39-10-6.7-6-13.22-12.2-19.7-18.43-13.7-13.16-27.77-26.08-36.61-43.28C-61.78-355.34-64.25-362.76-67.21-369.92ZM571.65,152.24c-2.36-1.41-3.41-2.18-4.57-2.72-9.37-4.3-18.86-8.35-28.13-12.86-32.66-15.92-64.86-32.6-93.12-55.86C436,72.72,426.76,64.08,420.26,53c-11.91-20.3-7.61-38.77,12-51.79,12-7.95,25.51-11.81,39.39-15,26.33-6,51.54-14.66,72.64-32.43q30.59-25.74,19.06-64.06c-6.81-22.67-20.2-41.49-35.21-59.25-19.34-22.9-42.38-41.88-65.57-60.64-71.28-57.63-149.42-103.08-236.48-132.59A556.43,556.43,0,0,0,84.17-391c-26.29-1.77-52.6-1.93-78.85,1-9.75,1.07-19.49,2.32-29.16,3.93-11.4,1.9-14.55,8-10,18.54a18.8,18.8,0,0,0,2,4c6.14,8.05,11.65,16.73,18.69,23.9A916.45,916.45,0,0,0,79.3-258c35.38,27.43,72.13,52.45,114.76,67.66,10.27,3.67,15,15.49,11.9,26.63-2.71,9.66-10,14-18.9,16.62-34.19,10.23-67.34,23-98.38,40.81C62.16-91,38.12-72.9,19.63-48.09,16.17-43.44,15.2-39,17-33.24,36,28.53,67.63,82.52,115.77,126c84.72,76.57,183.79,107.79,297.13,92,52.41-7.31,100.45-26.44,144.46-55.76C561.88,159.25,566.26,156,571.65,152.24Zm-183.46-638-.51,1.73c1.11,1.4,2.16,2.85,3.36,4.18,28.8,32.19,50.92,68.63,68.76,107.81A498.33,498.33,0,0,1,497.73-248a21.44,21.44,0,0,0,7.64,13.52c7.14,6,14,12.39,20.76,18.76,24.68,23.05,45.7,48.86,60,79.76,8.47,18.36,12.87,37.44,10,57.69C592.71-54.21,580-35.63,561.26-20.85,538-2.56,511.23,7.8,482.87,15a218.24,218.24,0,0,0-31.18,10c-8.84,3.73-9.81,8.77-3.66,16a114.9,114.9,0,0,0,17.91,17.23c39.17,29.72,83.27,50.48,128.13,69.8,3.63,1.56,6.34.68,8.92-2,9.08-9.52,18.76-18.52,27.25-28.53q99.4-117.15,83.44-270.09a333.08,333.08,0,0,0-32.74-113.49c-34.6-70.18-86.7-123.65-155.58-160.54-39.13-20.95-81.15-33.14-125.21-38.34C396.19-485.42,392.18-485.53,388.19-485.81ZM460-272.26l1.16-.53c-.31-1.57-.49-3.18-.95-4.71-4.72-15.57-8.82-31.37-14.35-46.65-22.17-61.25-54.05-116.43-102.59-160.91a277.46,277.46,0,0,0-61.52-43.19c-5.14-2.62-6.87-1.6-7,4.24-.12,4.15-.38,8.39.25,12.47,4.41,28.6,10,57,18.63,84.64,6.76,21.62,14,43,27.13,61.9,4.4,6.35,9.45,11.81,16.58,15.47a759.12,759.12,0,0,1,92.27,55.63Q444.76-283.11,460-272.26ZM158.29-170.15l.09-1.5c-1.55-.86-3.06-1.77-4.64-2.58-5.76-3-11.63-5.75-17.31-8.87-36.78-20.18-70.13-45.25-102.28-72-7-5.84-7.41-5.76-10.45,2.73A345.23,345.23,0,0,0,3-135.62c0,16.26,1.67,32.53,2.69,48.79.09,1.36,1.06,2.65,1.61,4a17.18,17.18,0,0,0,3.6-2c6.13-5.63,11.89-11.68,18.26-17C66.1-132.72,109-152.54,153.9-168.44,155.38-169,156.83-169.58,158.29-170.15ZM146.65-416.56l.28,1.79c44.89,7.67,88.27,20.63,131.5,37.89a34.25,34.25,0,0,0-1-4.67c-11-26.67-18.69-54.34-24.84-82.48-1.35-6.18-1.88-6.39-8.2-4.26a347,347,0,0,0-94.47,48.94C148.74-418.51,147.73-417.49,146.65-416.56Z" transform="translate(72.21 565.92)" style="fill:none;stroke:#788FC1;stroke-miterlimit:10;stroke-width:10px" class="IljzNdRo_0"></path><path d="M457.5-154.23c-.2-16.61-14.56-30.52-31.39-30.4s-31,14.12-31,30.76,14.66,30.94,31.65,30.65S457.7-137.64,457.5-154.23Z" transform="translate(72.21 565.92)" style="fill:none;stroke:#788FC1;stroke-miterlimit:10;stroke-width:10px" class="IljzNdRo_1"></path><path d="M457.5-154.23c.2,16.59-13.83,30.73-30.77,31s-31.65-13.91-31.65-30.65,14.13-30.65,31-30.76S457.3-170.84,457.5-154.23Z" transform="translate(72.21 565.92)" style="fill:none;stroke:#788FC1;stroke-miterlimit:10;stroke-width:10px" class="IljzNdRo_2"></path><style data-made-with="vivus-instant">
.IljzNdRo_0{ stroke-dasharray:8237 8239;stroke-dashoffset:8238;animation:IljzNdRo_draw_0 5200ms linear 0ms infinite,IljzNdRo_fade 5200ms linear 0ms infinite;}
.IljzNdRo_1{stroke-dasharray:194 196;stroke-dashoffset:195;animation:IljzNdRo_draw_1 5200ms linear 0ms infinite,IljzNdRo_fade 5200ms linear 0ms infinite;}
.IljzNdRo_2{stroke-dasharray:195 197;stroke-dashoffset:196;animation:IljzNdRo_draw_2 5200ms linear 0ms infinite,IljzNdRo_fade 5200ms linear 0ms infinite;}

@keyframes IljzNdRo_draw{100%{stroke-dashoffset:0; }}

@keyframes IljzNdRo_fade{0%{stroke-opacity:1; }94.44444444444444%{stroke-opacity:1; }100%{stroke-opacity:0;}}

@keyframes IljzNdRo_draw_0{11.11111111111111%{stroke-dashoffset: 8238}52.77777777777778%{ stroke-dashoffset: 0; }
60%{fill:#788FC1;}
100%{ stroke-dashoffset: 0; fill:#788FC1;}}

@keyframes IljzNdRo_draw_1{11.11111111111111%{stroke-dashoffset: 195}52.77777777777778%{ stroke-dashoffset: 0;}100%{ stroke-dashoffset: 0; }}

@keyframes IljzNdRo_draw_2{11.11111111111111%{stroke-dashoffset: 196}52.77777777777778%{ stroke-dashoffset: 0; fill:#788FC1;}100%{ stroke-dashoffset: 0; fill:#788FC1;}}</style></svg>